<?xml version="1.0" encoding="UTF-8"?>
<svg width="128px" height="32px" viewBox="0 0 128 32" version="1.1" xmlns="http://www.w3.org/2000/svg" xmlns:xlink="http://www.w3.org/1999/xlink">
    <!-- Generator: Sketch 47 (45396) - http://www.bohemiancoding.com/sketch -->
    <title>Logo</title>
    <desc>Created with Sketch.</desc>
    <defs></defs>
    <g id="Home" stroke="none" stroke-width="1" fill="none" fill-rule="evenodd">
        <g id="Homepage" transform="translate(-233.000000, -15.000000)" fill-rule="nonzero" fill="#FFFFFF">
            <g id="Logo" transform="translate(233.000000, 15.000000)">
                <polygon id="Shape" points="13.7662248 26.6666667 6.47822345 21.442735 6.47822345 11.8974359 2.45632639 14.9880342 2.45632639 18.5709402 0.134962988 16.9025641 0.134962988 22.1811966 13.7662248 31.8358974 21.000241 26.7213675 21.000241 29.4017094 25.1840936 29.4017094 25.1840936 23.7675214 27.3974867 22.1811966 27.3974867 16.9025641"></polygon>
                <polygon id="Shape" points="27.3974867 9.70940171 13.7662248 0.0547008547 6.58619384 5.11452991 6.58619384 2.24273504 2.348356 2.24273504 2.348356 8.12307692 0.134962988 9.70940171 0.134962988 14.9880342 13.7662248 5.22393162 21.0542262 10.4478632 21.0542262 19.9384615 25.0761233 16.8478632 25.0761233 13.3196581 27.3974867 14.9880342"></polygon>
                <g id="Group" transform="translate(34.820451, 4.649573)">
                    <path d="M11.9037356,12.3076923 L11.9307282,12.3897436 L3.80595627,12.3897436 C4.10287485,13.4290598 4.91265278,14.2495726 6.37025306,14.2495726 C7.18003099,14.2495726 7.77386814,13.9487179 8.09777931,13.4290598 L11.8497504,13.4290598 C11.3098984,15.808547 9.12349802,17.3128205 6.31626786,17.3128205 C2.59128938,17.3128205 0.107970391,14.7965812 0.107970391,11.2683761 C0.107970391,7.76752137 2.53730418,5.25128205 6.15431227,5.25128205 C9.47440179,5.25128205 11.9847134,7.54871795 11.9847134,11.0222222 C11.9847134,11.4324786 11.9847134,11.8974359 11.9037356,12.3076923 Z M3.75197108,10.1196581 L8.39469788,10.1196581 C8.1787571,8.86153846 7.36897917,8.20512821 6.15431227,8.20512821 C4.85866758,8.20512821 4.04888965,8.97094017 3.75197108,10.1196581 Z" id="Shape"></path>
                    <path d="M32.202169,10.4478632 L32.202169,17.0393162 L28.3692202,17.0393162 L28.3692202,11.0769231 C28.3692202,9.43589744 27.5864348,8.64273504 26.3177828,8.64273504 C25.7239456,8.64273504 25.1571011,8.91623932 24.5902565,9.6 C24.6172491,9.87350427 24.6442417,10.174359 24.6442417,10.4478632 L24.6442417,17.0393162 L20.8382854,17.0393162 L20.8382854,11.0769231 C20.8382854,9.43589744 20.0285075,8.64273504 18.786848,8.64273504 C18.1930108,8.64273504 17.6261663,8.91623932 17.0863143,9.65470085 L17.0863143,17.0393162 L13.2803581,17.0393162 L13.2803581,5.4974359 L17.0863143,5.4974359 L17.0863143,6.18119658 C17.8690997,5.52478632 18.651885,5.14188034 19.9205371,5.14188034 C21.3511448,5.14188034 22.5658117,5.68888889 23.4295748,6.7008547 C24.6172491,5.63418803 25.7779308,5.14188034 27.4784645,5.14188034 C30.1777242,5.14188034 32.202169,7.13846154 32.202169,10.4478632 Z" id="Shape"></path>
                    <polygon id="Shape" points="37.8976072 17.0119658 34.0916509 17.0119658 34.0916509 0.109401709 37.8976072 0.109401709"></polygon>
                    <path d="M51.9067654,17.0119658 L48.1008091,17.0119658 L48.1008091,16.382906 C47.2640386,16.9299145 46.2113273,17.2581197 44.9696678,17.2581197 C41.8925116,17.2581197 39.3012222,14.6598291 39.3012222,11.2410256 C39.3012222,7.79487179 41.8925116,5.22393162 44.9696678,5.22393162 C46.2113273,5.22393162 47.237046,5.55213675 48.1008091,6.0991453 L48.1008091,5.47008547 L51.9067654,5.47008547 L51.9067654,17.0119658 Z M48.1008091,13.0188034 L48.1008091,9.46324786 C47.3990015,8.64273504 46.562231,8.36923077 45.7254605,8.36923077 C44.1868824,8.36923077 43.0531933,9.65470085 43.0531933,11.2410256 C43.0531933,12.8273504 44.1868824,14.0854701 45.7254605,14.0854701 C46.5892236,14.0854701 47.3990015,13.8666667 48.1008091,13.0188034 Z" id="Shape"></path>
                    <polygon id="Shape" points="57.7101739 14.7692308 57.7101739 17.0393162 53.9042176 17.0393162 53.9042176 0.136752137 57.7101739 0.136752137 57.7101739 9.81880342 61.6780857 5.4974359 66.2128421 5.4974359 61.8940265 10.2017094 66.5907385 17.0393162 62.0289895 17.0393162 59.3027371 13.0461538"></polygon>
                    <polygon id="Shape" points="71.2604579 17.0119658 67.4545016 17.0119658 67.4545016 5.47008547 71.2604579 5.47008547"></polygon>
                    <path d="M92.2337063,10.4478632 L92.2337063,17.0393162 L88.4007574,17.0393162 L88.4007574,11.0769231 C88.4007574,9.43589744 87.6179721,8.64273504 86.34932,8.64273504 C85.7554829,8.64273504 85.1886383,8.91623932 84.6217938,9.6 C84.6487864,9.87350427 84.675779,10.174359 84.675779,10.4478632 L84.675779,17.0393162 L80.8698227,17.0393162 L80.8698227,11.0769231 C80.8698227,9.43589744 80.0600448,8.64273504 78.8183853,8.64273504 C78.2245481,8.64273504 77.6577036,8.91623932 77.1178516,9.65470085 L77.1178516,17.0393162 L73.3118953,17.0393162 L73.3118953,5.4974359 L77.1178516,5.4974359 L77.1178516,6.18119658 C77.9006369,5.52478632 78.6834223,5.14188034 79.9520744,5.14188034 C81.382682,5.14188034 82.5973489,5.68888889 83.4611121,6.7008547 C84.6487864,5.63418803 85.8094681,5.14188034 87.5100017,5.14188034 C90.2362541,5.14188034 92.2337063,7.13846154 92.2337063,10.4478632 Z" id="Shape"></path>
                </g>
            </g>
        </g>
    </g>
</svg>